<svg xmlns="http://www.w3.org/2000/svg" width="40" height="40" viewBox="0 0 40 40" shape-rendering="crispEdges" role="img" aria-label="Dirigible pixel mark">
<path d="M1 0h38v1h1v38h-1v1h-38v-1h-1v-38h1z" fill="#050a08"></path>
<path d="M2 2h36v1h-36zM2 37h36v1h-36zM2 2h1v36h-1zM37 2h1v36h-1z" fill="#12261e"></path>
<path d="M8 6h1v1h-1zM30 8h1v1h-1zM22 5h1v1h-1zM14 34h1v1h-1zM33 31h1v1h-1z" fill="#2a7466"></path>
<g transform="translate(5 12)">
<path d="M9 0h14v1h-14zM6 1h3v1h-3zM23 1h4v1h-4zM4 2h2v1h-2zM9 2h20v1h-20zM3 3h28v1h-28zM3 4h2v1h-2zM6 4h6v1h-6zM13 4h7v1h-7zM21 4h11v1h-11zM3 5h2v1h-2zM6 5h6v1h-6zM13 5h7v1h-7zM21 5h11v1h-11z" fill="#44aa99"></path>
<path d="M9 1h14v1h-14zM6 2h3v1h-3z" fill="#7fe0c0"></path>
<path d="M3 6h2v1h-2zM6 6h6v1h-6zM13 6h7v1h-7zM21 6h10v1h-10zM3 7h27v1h-27zM4 8h25v1h-25zM6 9h21v1h-21zM9 10h15v1h-15z" fill="#2a7466"></path>
<path d="M5 4h1v1h-1zM12 4h1v1h-1zM20 4h1v1h-1zM5 5h1v1h-1zM12 5h1v1h-1zM20 5h1v1h-1zM5 6h1v1h-1zM12 6h1v1h-1zM20 6h1v1h-1z" fill="#050a08"></path>
<path d="M0 3h2v1h-2zM0 4h3v1h-3zM0 5h3v1h-3zM0 6h3v1h-3zM0 7h2v1h-2z" fill="#2a7466"></path>
<path d="M11 11h1v1h-1zM21 11h1v1h-1z" fill="#44aa99"></path>
<path d="M11 12h11v1h-11zM11 13h3v1h-3zM15 13h3v1h-3zM19 13h3v1h-3zM11 14h11v1h-11z" fill="#7fe0c0"></path>
<path d="M-3 5h2v1h-2zM-4 4h1v1h-1z" fill="#f0a04b"></path>
</g>
</svg>
